# xmcd
#
# Track frame offsets: 
#        150
#        33922
#        53158
#        73670
#        93476
#        116906
#        129826
#        146688
#        171863
#        186095
#        210385
#        222800
#        258230
#        277873
#        304078
#        321893
#
# Disc length: 4770 seconds
#
# Revision: 0
# Processed by: cddbd v1.5.2PL0 Copyright (c) Steve Scherf et al.
# Submitted via: ExactAudioCopy v1.3
#
DISCID=e612a010
DTITLE=Various Artist - Akella Presents - vol. 124 - Black Pure Blues
DTITLE=CD2
DYEAR=2018
DGENRE=Blues
TTITLE0=Larry Burton - What I'm Going Through
TTITLE1=Big Bill Morganfield - Bloodstains On The Wall
TTITLE2=The Blues Masters - Hip Skakin' Mama
TTITLE3=Jonathan Ellison - Leave Well Enough Alone
TTITLE4=Terry Evans - Don't Give Up
TTITLE5=Chris Cane - Tired Of The Way You Do
TTITLE6=Clifford Scott - Mr. Honky Tonk's Back In Town
TTITLE7=Eddie C. Campbell - You Worry Me
TTITLE8=Mojo Watson - Ten Years Ago
TTITLE9=Louisiana Red - Standing Like A Stone
TTITLE10=Preston Shannon - The Fools Way Out
TTITLE11=J. C. Smith Band - Stone Crazy
TTITLE12=Chris Beard - Eye of the Witch
TTITLE13=Larry Garner - Broke Bluesman
TTITLE14=Drink Small - Don't Let Nobody Else
TTITLE15=Larry Burton - I've Got Your Body
EXTD=
EXTT0=
EXTT1=
EXTT2=
EXTT3=
EXTT4=
EXTT5=
EXTT6=
EXTT7=
EXTT8=
EXTT9=
EXTT10=
EXTT11=
EXTT12=
EXTT13=
EXTT14=
EXTT15=
PLAYORDER=
